<?xml version="1.0" encoding="UTF-8" standalone="no"?>
<!-- Created with Inkscape (http://www.inkscape.org/) -->

<svg
   width="48"
   height="40"
   viewBox="0 0 12.7 10.583336"
   version="1.1"
   id="svg1"
   xmlns="http://www.w3.org/2000/svg"
   xmlns:svg="http://www.w3.org/2000/svg">
  <defs
     id="defs1" />
  <g
     id="layer1"
     transform="translate(-0.02116321,-0.02230248)">
    <g
       id="g13">
      <path
         style="fill:none;stroke-width:0.24337"
         id="path1"
         d="m 0.02116321,3.4407901 c 0.02350512,0.020489 0.05318732,0.044726 0.07222553,0.069379 0.01763222,0.022832 0.03199072,0.048246 0.04794289,0.072401 0.0206423,0.031257 0.0413859,0.06244 0.0618403,0.093832 0.0434555,0.066693 0.14409248,0.223618 0.18213758,0.2828355 0.29540586,0.4518092 0.56784915,0.9199366 0.81326509,1.4035896 0.059151,0.1165713 0.1154692,0.2346997 0.1732037,0.3520492 0.2410996,0.5023908 0.4593387,1.0162073 0.6789523,1.5291562 0.040901,0.093778 0.08333,0.1866806 0.1230427,0.2810029 0.014897,0.035382 0.027806,0.072691 0.046253,0.1062021 0.0017,0.00781 0.00342,0.015628 0.00513,0.023442 0.00286,0.00222 0.00732,0.00317 0.00858,0.00665 0.00246,0.00679 -0.00233,0.015751 0.00165,0.021683 0.00105,0.00157 0.020447,-0.00735 0.023096,-0.00875 0.0062,-0.010821 0.01242,-0.021644 0.01863,-0.032463 0,0 3.2626475,1.5472981 3.2626475,1.5472981 v 0 c 0.0043,-0.014804 0.00859,-0.029608 0.012895,-0.044411 -0.00144,-0.00608 -0.011884,-0.049465 -0.013587,-0.050717 -0.00521,-0.00382 -0.01319,0.00542 -0.018933,0.00255 -0.00747,-0.00374 -0.010619,-0.01333 -0.015927,-0.019996 -0.00967,-0.00395 -0.019352,-0.00792 -0.029026,-0.011869 C 5.4270737,9.0195097 5.3736466,8.9828029 5.324736,8.9383565 5.2137176,8.8374709 5.1164984,8.7223207 5.0178726,8.6084717 4.9702066,8.5488008 4.9208203,8.4905966 4.8748743,8.4294588 4.5384247,7.9817656 4.2665194,7.4844378 4.0242574,6.975538 3.9731015,6.861314 3.9203925,6.7478417 3.8707897,6.6328665 3.6942782,6.2237251 3.5415646,5.8041952 3.4006584,5.3802976 3.362048,5.2676867 3.3572022,5.2566722 3.324616,5.1513021 3.311086,5.1075521 3.295073,5.0644081 3.285889,5.0194344 3.283019,5.0054134 3.278919,4.9541904 3.277299,4.9352404 Z" />
      <path
         style="fill:none;fill-opacity:1;stroke:#4ccc59;stroke-width:1.44234;stroke-linecap:round;stroke-linejoin:round;stroke-dasharray:none;stroke-opacity:1;paint-order:normal"
         d="M 1.8006665,9.8844693 10.941669,0.74347248"
         id="path13" />
      <path
         style="fill:none;fill-opacity:1;stroke:#4ccc59;stroke-width:1.44234;stroke-linecap:round;stroke-linejoin:round;stroke-dasharray:none;stroke-opacity:1;paint-order:normal"
         d="M 10.941662,9.8844648 1.800664,0.74347127"
         id="path13-0" />
    </g>
  </g>
</svg>
