<?xml version="1.0" encoding="UTF-8" standalone="no"?>
<!-- Created with Inkscape (http://www.inkscape.org/) -->

<svg
   width="48"
   height="40"
   viewBox="0 0 12.7 10.583336"
   version="1.1"
   id="svg1"
   xmlns="http://www.w3.org/2000/svg"
   xmlns:svg="http://www.w3.org/2000/svg">
  <defs
     id="defs1" />
  <g
     id="layer1"
     transform="translate(-0.02116321,-0.02230248)">
    <path
       id="picture"
       d="M 9.4138715,2.4035525 H 3.3284549 a 0.39689616,0.39689616 0 0 0 -0.396875,0.396875 v 5.0270834 a 0.39689616,0.39689616 0 0 0 0.396875,0.396875 h 6.0854166 a 0.39689616,0.39689616 0 0 0 0.396875,-0.396875 V 2.8004275 A 0.39689616,0.39689616 0 0 0 9.4138715,2.4035525 Z M 9.0169965,5.9754276 7.7485179,4.5916303 a 0.26295085,0.26295085 0 0 0 -0.3821325,-0.0083 l -1.4148355,1.4148355 1.43247,1.43247 H 6.6357465 L 5.3676224,6.162488 a 0.26464154,0.26464154 0 0 0 -0.3741685,0 L 3.7253298,7.4306359 V 3.1973026 h 5.2916667 z m -4.7360417,-1.5875 a 0.63499999,0.63499999 0 1 1 0.635,0.635 0.63501322,0.63501322 0 0 1 -0.635,-0.635 z"
       style="stroke-width:0.264583" />
  </g>
</svg>
