<?xml version="1.0" encoding="UTF-8" standalone="no"?>
<!-- Created with Inkscape (http://www.inkscape.org/) -->

<svg
   width="32"
   height="32"
   viewBox="0 0 32 32"
   version="1.1"
   id="svg1"
   sodipodi:docname="rotate.svg"
   inkscape:version="1.3.2 (091e20e, 2023-11-25)"
   xmlns:inkscape="http://www.inkscape.org/namespaces/inkscape"
   xmlns:sodipodi="http://sodipodi.sourceforge.net/DTD/sodipodi-0.dtd"
   xmlns="http://www.w3.org/2000/svg"
   xmlns:svg="http://www.w3.org/2000/svg">
  <sodipodi:namedview
     id="namedview1"
     pagecolor="#ffffff"
     bordercolor="#000000"
     borderopacity="0.25"
     inkscape:showpageshadow="2"
     inkscape:pageopacity="0.0"
     inkscape:pagecheckerboard="0"
     inkscape:deskcolor="#d1d1d1"
     inkscape:zoom="32"
     inkscape:cx="12.21875"
     inkscape:cy="14.421875"
     inkscape:window-width="2560"
     inkscape:window-height="1386"
     inkscape:window-x="0"
     inkscape:window-y="25"
     inkscape:window-maximized="0"
     inkscape:current-layer="svg1" />
  <defs
     id="defs1">
    <marker
       style="overflow:visible"
       id="marker5"
       refX="-1"
       refY="0"
       orient="0,00"
       inkscape:stockid="Rounded arrow"
       markerWidth="0.95"
       markerHeight="0.8"
       viewBox="0 0 1 1"
       inkscape:isstock="true"
       inkscape:collect="always"
       preserveAspectRatio="xMidYMid"
       markerUnits="userSpaceOnUse">
      <path
         transform="scale(0.7)"
         d="m -0.21114562,-4.1055728 6.42229122,3.21114561 a 1,1 90 0 1 0,1.78885438 L -0.21114562,4.1055728 A 1.236068,1.236068 31.717474 0 1 -2,3 v -6 a 1.236068,1.236068 148.28253 0 1 1.78885438,-1.1055728 z"
         style="fill:context-stroke;fill-rule:evenodd;stroke:none"
         id="path5" />
    </marker>
  </defs>
  <path
     style="fill:none;stroke:#000000;stroke-width:2;stroke-linecap:round;stroke-linejoin:round;stroke-dasharray:none;marker-end:url(#marker5)"
     id="path4"
     sodipodi:type="arc"
     sodipodi:cx="15.976934"
     sodipodi:cy="-15.010132"
     sodipodi:rx="14.902229"
     sodipodi:ry="4.6493168"
     sodipodi:start="5.2328185"
     sodipodi:end="4.5304405"
     sodipodi:open="true"
     sodipodi:arc-type="arc"
     d="m 23.38711,-19.043905 a 14.902229,4.6493168 0 0 1 6.614778,5.605435 14.902229,4.6493168 0 0 1 -16.534992,3.01123 14.902229,4.6493168 0 0 1 -12.3918901,-4.55335 14.902229,4.6493168 0 0 1 12.2054261,-4.602112"
     transform="scale(1,-1)" />
</svg>
